<?xml version="1.0" encoding="UTF-8" standalone="no"?>
<!DOCTYPE svg PUBLIC "-//W3C//DTD SVG 1.1//EN"
 "http://www.w3.org/Graphics/SVG/1.1/DTD/svg11.dtd">
<!-- Generated by graphviz version 2.28.0 (20110507.0327)
 -->
<!-- Title: tx_arbiter Pages: 1 -->
<svg width="2054pt" height="410pt"
 viewBox="0.00 0.00 2054.00 410.00" xmlns="http://www.w3.org/2000/svg" xmlns:xlink="http://www.w3.org/1999/xlink">
<g id="graph1" class="graph" transform="scale(1 1) rotate(0) translate(4 406)">
<title>tx_arbiter</title>
<polygon fill="white" stroke="white" points="-4,5 -4,-406 2051,-406 2051,5 -4,5"/>
<!-- IDLE_0 -->
<g id="node1" class="node"><title>IDLE_0</title>
<ellipse fill="none" stroke="black" cx="173" cy="-375" rx="42.3701" ry="18"/>
<text text-anchor="middle" x="173" y="-371.3" font-family="Times New Roman,serif" font-size="14.00">IDLE_0</text>
</g>
<!-- WAIT_0 -->
<g id="node2" class="node"><title>WAIT_0</title>
<ellipse fill="none" stroke="black" cx="44" cy="-239" rx="44.271" ry="18"/>
<text text-anchor="middle" x="44" y="-235.3" font-family="Times New Roman,serif" font-size="14.00">WAIT_0</text>
</g>
<!-- IDLE_0&#45;&gt;WAIT_0 -->
<g id="edge27" class="edge"><title>IDLE_0&#45;&gt;WAIT_0</title>
<path fill="none" stroke="black" d="M157.695,-358.102C135.22,-334.756 93.1247,-291.029 66.9414,-263.831"/>
<polygon fill="black" stroke="black" points="69.1438,-261.072 59.687,-256.295 64.1009,-265.927 69.1438,-261.072"/>
<text text-anchor="middle" x="156" y="-303.3" font-family="Times New Roman,serif" font-size="14.00">request_0</text>
</g>
<!-- IDLE_OUT_0 -->
<g id="node17" class="node"><title>IDLE_OUT_0</title>
<text text-anchor="start" x="280.5" y="-386.3" font-family="Times New Roman,serif" font-size="14.00">acknowledge_0=0</text>
<text text-anchor="start" x="280.5" y="-371.3" font-family="Times New Roman,serif" font-size="14.00">pending_0=0</text>
<text text-anchor="start" x="280.5" y="-356.3" font-family="Times New Roman,serif" font-size="14.00">request_memorized_0=0</text>
</g>
<!-- IDLE_0&#45;&gt;IDLE_OUT_0 -->
<g id="edge19" class="edge"><title>IDLE_0&#45;&gt;IDLE_OUT_0</title>
<path fill="none" stroke="black" d="M215.303,-375C234.437,-375 253.571,-375 272.705,-375"/>
</g>
<!-- ACK_0 -->
<g id="node3" class="node"><title>ACK_0</title>
<ellipse fill="none" stroke="black" cx="47" cy="-133" rx="39.9464" ry="18"/>
<text text-anchor="middle" x="47" y="-129.3" font-family="Times New Roman,serif" font-size="14.00">ACK_0</text>
</g>
<!-- WAIT_0&#45;&gt;ACK_0 -->
<g id="edge29" class="edge"><title>WAIT_0&#45;&gt;ACK_0</title>
<path fill="none" stroke="black" d="M44.4954,-220.827C44.9622,-204.643 45.6693,-180.131 46.2133,-161.273"/>
<polygon fill="black" stroke="black" points="49.714,-161.296 46.5039,-151.199 42.7169,-161.094 49.714,-161.296"/>
<text text-anchor="middle" x="78" y="-182.3" font-family="Times New Roman,serif" font-size="14.00">accepted_0</text>
</g>
<!-- WAIT_OUT_0 -->
<g id="node18" class="node"><title>WAIT_OUT_0</title>
<text text-anchor="start" x="132.5" y="-250.3" font-family="Times New Roman,serif" font-size="14.00">acknowledge_0=0</text>
<text text-anchor="start" x="132.5" y="-235.3" font-family="Times New Roman,serif" font-size="14.00">pending_0=0</text>
<text text-anchor="start" x="132.5" y="-220.3" font-family="Times New Roman,serif" font-size="14.00">request_memorized_0=1</text>
</g>
<!-- WAIT_0&#45;&gt;WAIT_OUT_0 -->
<g id="edge21" class="edge"><title>WAIT_0&#45;&gt;WAIT_OUT_0</title>
<path fill="none" stroke="black" d="M88.6875,-239C100.699,-239 112.711,-239 124.723,-239"/>
</g>
<!-- PROCESS_0 -->
<g id="node4" class="node"><title>PROCESS_0</title>
<ellipse fill="none" stroke="black" cx="145" cy="-27" rx="61.6163" ry="18"/>
<text text-anchor="middle" x="145" y="-23.3" font-family="Times New Roman,serif" font-size="14.00">PROCESS_0</text>
</g>
<!-- ACK_0&#45;&gt;PROCESS_0 -->
<g id="edge31" class="edge"><title>ACK_0&#45;&gt;PROCESS_0</title>
<path fill="none" stroke="black" d="M61.8841,-116.205C77.956,-99.1487 103.749,-71.7764 122.342,-52.0453"/>
<polygon fill="black" stroke="black" points="125.015,-54.3119 129.326,-44.6337 119.921,-49.5113 125.015,-54.3119"/>
<text text-anchor="middle" x="106" y="-76.3" font-family="Times New Roman,serif" font-size="14.00">1</text>
</g>
<!-- ACK_OUT_0 -->
<g id="node19" class="node"><title>ACK_OUT_0</title>
<text text-anchor="start" x="131.5" y="-144.3" font-family="Times New Roman,serif" font-size="14.00">acknowledge_0=1</text>
<text text-anchor="start" x="131.5" y="-129.3" font-family="Times New Roman,serif" font-size="14.00">pending_0=1</text>
<text text-anchor="start" x="131.5" y="-114.3" font-family="Times New Roman,serif" font-size="14.00">request_memorized_0=x</text>
</g>
<!-- ACK_0&#45;&gt;ACK_OUT_0 -->
<g id="edge23" class="edge"><title>ACK_0&#45;&gt;ACK_OUT_0</title>
<path fill="none" stroke="black" d="M87.2188,-133C99.2793,-133 111.34,-133 123.4,-133"/>
</g>
<!-- PROCESS_0&#45;&gt;IDLE_0 -->
<g id="edge33" class="edge"><title>PROCESS_0&#45;&gt;IDLE_0</title>
<path fill="none" stroke="black" d="M191.011,-39.0638C225.131,-49.9321 269.331,-70.2394 291,-106 307.624,-133.434 301.263,-245.084 292,-266 274.595,-305.301 235.04,-336.413 206.299,-354.959"/>
<polygon fill="black" stroke="black" points="204.38,-352.032 197.763,-360.307 208.096,-357.964 204.38,-352.032"/>
<text text-anchor="middle" x="328.5" y="-182.3" font-family="Times New Roman,serif" font-size="14.00">release_0</text>
</g>
<!-- PROCESS_OUT_0 -->
<g id="node20" class="node"><title>PROCESS_OUT_0</title>
<text text-anchor="start" x="296.5" y="-38.3" font-family="Times New Roman,serif" font-size="14.00">acknowledge_0=0</text>
<text text-anchor="start" x="296.5" y="-23.3" font-family="Times New Roman,serif" font-size="14.00">pending_0=1</text>
<text text-anchor="start" x="296.5" y="-8.3" font-family="Times New Roman,serif" font-size="14.00">request_memorized_0=x</text>
</g>
<!-- PROCESS_0&#45;&gt;PROCESS_OUT_0 -->
<g id="edge25" class="edge"><title>PROCESS_0&#45;&gt;PROCESS_OUT_0</title>
<path fill="none" stroke="black" d="M206.412,-27C233.764,-27 261.116,-27 288.468,-27"/>
</g>
<!-- IDLE_1 -->
<g id="node5" class="node"><title>IDLE_1</title>
<ellipse fill="none" stroke="black" cx="503" cy="-375" rx="42.3701" ry="18"/>
<text text-anchor="middle" x="503" y="-371.3" font-family="Times New Roman,serif" font-size="14.00">IDLE_1</text>
</g>
<!-- WAIT_1 -->
<g id="node6" class="node"><title>WAIT_1</title>
<ellipse fill="none" stroke="black" cx="386" cy="-239" rx="44.271" ry="18"/>
<text text-anchor="middle" x="386" y="-235.3" font-family="Times New Roman,serif" font-size="14.00">WAIT_1</text>
</g>
<!-- IDLE_1&#45;&gt;WAIT_1 -->
<g id="edge44" class="edge"><title>IDLE_1&#45;&gt;WAIT_1</title>
<path fill="none" stroke="black" d="M488.887,-357.836C468.507,-334.496 430.693,-291.186 407.021,-264.075"/>
<polygon fill="black" stroke="black" points="409.377,-261.452 400.163,-256.221 404.104,-266.056 409.377,-261.452"/>
<text text-anchor="middle" x="490" y="-303.3" font-family="Times New Roman,serif" font-size="14.00">request_1</text>
</g>
<!-- IDLE_OUT_1 -->
<g id="node21" class="node"><title>IDLE_OUT_1</title>
<text text-anchor="start" x="608.5" y="-386.3" font-family="Times New Roman,serif" font-size="14.00">acknowledge_1=0</text>
<text text-anchor="start" x="608.5" y="-371.3" font-family="Times New Roman,serif" font-size="14.00">pending_1=0</text>
<text text-anchor="start" x="608.5" y="-356.3" font-family="Times New Roman,serif" font-size="14.00">request_memorized_1=0</text>
</g>
<!-- IDLE_1&#45;&gt;IDLE_OUT_1 -->
<g id="edge36" class="edge"><title>IDLE_1&#45;&gt;IDLE_OUT_1</title>
<path fill="none" stroke="black" d="M545.176,-375C563.697,-375 582.217,-375 600.738,-375"/>
</g>
<!-- ACK_1 -->
<g id="node7" class="node"><title>ACK_1</title>
<ellipse fill="none" stroke="black" cx="390" cy="-133" rx="39.9464" ry="18"/>
<text text-anchor="middle" x="390" y="-129.3" font-family="Times New Roman,serif" font-size="14.00">ACK_1</text>
</g>
<!-- WAIT_1&#45;&gt;ACK_1 -->
<g id="edge46" class="edge"><title>WAIT_1&#45;&gt;ACK_1</title>
<path fill="none" stroke="black" d="M386.661,-220.827C387.283,-204.643 388.226,-180.131 388.951,-161.273"/>
<polygon fill="black" stroke="black" points="392.451,-161.326 389.339,-151.199 385.457,-161.057 392.451,-161.326"/>
<text text-anchor="middle" x="421" y="-182.3" font-family="Times New Roman,serif" font-size="14.00">accepted_1</text>
</g>
<!-- WAIT_OUT_1 -->
<g id="node22" class="node"><title>WAIT_OUT_1</title>
<text text-anchor="start" x="474.5" y="-250.3" font-family="Times New Roman,serif" font-size="14.00">acknowledge_1=0</text>
<text text-anchor="start" x="474.5" y="-235.3" font-family="Times New Roman,serif" font-size="14.00">pending_1=0</text>
<text text-anchor="start" x="474.5" y="-220.3" font-family="Times New Roman,serif" font-size="14.00">request_memorized_1=1</text>
</g>
<!-- WAIT_1&#45;&gt;WAIT_OUT_1 -->
<g id="edge38" class="edge"><title>WAIT_1&#45;&gt;WAIT_OUT_1</title>
<path fill="none" stroke="black" d="M430.688,-239C442.699,-239 454.711,-239 466.723,-239"/>
</g>
<!-- PROCESS_1 -->
<g id="node8" class="node"><title>PROCESS_1</title>
<ellipse fill="none" stroke="black" cx="550" cy="-27" rx="61.6163" ry="18"/>
<text text-anchor="middle" x="550" y="-23.3" font-family="Times New Roman,serif" font-size="14.00">PROCESS_1</text>
</g>
<!-- ACK_1&#45;&gt;PROCESS_1 -->
<g id="edge48" class="edge"><title>ACK_1&#45;&gt;PROCESS_1</title>
<path fill="none" stroke="black" d="M411.912,-117.757C439.214,-100.011 486.101,-69.5342 517.569,-49.0802"/>
<polygon fill="black" stroke="black" points="519.53,-51.9803 526.006,-43.5958 515.715,-46.1111 519.53,-51.9803"/>
<text text-anchor="middle" x="484" y="-76.3" font-family="Times New Roman,serif" font-size="14.00">1</text>
</g>
<!-- ACK_OUT_1 -->
<g id="node23" class="node"><title>ACK_OUT_1</title>
<text text-anchor="start" x="474.5" y="-144.3" font-family="Times New Roman,serif" font-size="14.00">acknowledge_1=1</text>
<text text-anchor="start" x="474.5" y="-129.3" font-family="Times New Roman,serif" font-size="14.00">pending_1=1</text>
<text text-anchor="start" x="474.5" y="-114.3" font-family="Times New Roman,serif" font-size="14.00">request_memorized_1=x</text>
</g>
<!-- ACK_1&#45;&gt;ACK_OUT_1 -->
<g id="edge40" class="edge"><title>ACK_1&#45;&gt;ACK_OUT_1</title>
<path fill="none" stroke="black" d="M430.219,-133C442.279,-133 454.34,-133 466.4,-133"/>
</g>
<!-- PROCESS_1&#45;&gt;IDLE_1 -->
<g id="edge50" class="edge"><title>PROCESS_1&#45;&gt;IDLE_1</title>
<path fill="none" stroke="black" d="M575.95,-43.5185C595.991,-57.1504 622.227,-79.0018 634,-106 662.424,-171.183 664.332,-201.682 634,-266 614.49,-307.371 570.497,-338.27 538.872,-356.192"/>
<polygon fill="black" stroke="black" points="536.984,-353.235 529.903,-361.117 540.353,-359.371 536.984,-353.235"/>
<text text-anchor="middle" x="683.5" y="-182.3" font-family="Times New Roman,serif" font-size="14.00">release_1</text>
</g>
<!-- PROCESS_OUT_1 -->
<g id="node24" class="node"><title>PROCESS_OUT_1</title>
<text text-anchor="start" x="666.5" y="-38.3" font-family="Times New Roman,serif" font-size="14.00">acknowledge_1=0</text>
<text text-anchor="start" x="666.5" y="-23.3" font-family="Times New Roman,serif" font-size="14.00">pending_1=1</text>
<text text-anchor="start" x="666.5" y="-8.3" font-family="Times New Roman,serif" font-size="14.00">request_memorized_1=x</text>
</g>
<!-- PROCESS_1&#45;&gt;PROCESS_OUT_1 -->
<g id="edge42" class="edge"><title>PROCESS_1&#45;&gt;PROCESS_OUT_1</title>
<path fill="none" stroke="black" d="M611.688,-27C627.312,-27 642.937,-27 658.561,-27"/>
</g>
<!-- IDLE_2 -->
<g id="node9" class="node"><title>IDLE_2</title>
<ellipse fill="none" stroke="black" cx="976" cy="-375" rx="42.3701" ry="18"/>
<text text-anchor="middle" x="976" y="-371.3" font-family="Times New Roman,serif" font-size="14.00">IDLE_2</text>
</g>
<!-- WAIT_2 -->
<g id="node10" class="node"><title>WAIT_2</title>
<ellipse fill="none" stroke="black" cx="728" cy="-239" rx="44.271" ry="18"/>
<text text-anchor="middle" x="728" y="-235.3" font-family="Times New Roman,serif" font-size="14.00">WAIT_2</text>
</g>
<!-- IDLE_2&#45;&gt;WAIT_2 -->
<g id="edge61" class="edge"><title>IDLE_2&#45;&gt;WAIT_2</title>
<path fill="none" stroke="black" d="M950.856,-360.414C906.224,-336.298 813.105,-285.984 762.512,-258.648"/>
<polygon fill="black" stroke="black" points="764.044,-255.497 753.582,-253.822 760.716,-261.655 764.044,-255.497"/>
<text text-anchor="middle" x="917" y="-303.3" font-family="Times New Roman,serif" font-size="14.00">request_2</text>
</g>
<!-- IDLE_OUT_2 -->
<g id="node25" class="node"><title>IDLE_OUT_2</title>
<text text-anchor="start" x="1135.5" y="-386.3" font-family="Times New Roman,serif" font-size="14.00">acknowledge_2=0</text>
<text text-anchor="start" x="1135.5" y="-371.3" font-family="Times New Roman,serif" font-size="14.00">pending_2=0</text>
<text text-anchor="start" x="1135.5" y="-356.3" font-family="Times New Roman,serif" font-size="14.00">request_memorized_2=0</text>
</g>
<!-- IDLE_2&#45;&gt;IDLE_OUT_2 -->
<g id="edge53" class="edge"><title>IDLE_2&#45;&gt;IDLE_OUT_2</title>
<path fill="none" stroke="black" d="M1018.41,-375C1054.75,-375 1091.1,-375 1127.44,-375"/>
</g>
<!-- ACK_2 -->
<g id="node11" class="node"><title>ACK_2</title>
<ellipse fill="none" stroke="black" cx="732" cy="-133" rx="39.9464" ry="18"/>
<text text-anchor="middle" x="732" y="-129.3" font-family="Times New Roman,serif" font-size="14.00">ACK_2</text>
</g>
<!-- WAIT_2&#45;&gt;ACK_2 -->
<g id="edge63" class="edge"><title>WAIT_2&#45;&gt;ACK_2</title>
<path fill="none" stroke="black" d="M728.661,-220.827C729.283,-204.643 730.226,-180.131 730.951,-161.273"/>
<polygon fill="black" stroke="black" points="734.451,-161.326 731.339,-151.199 727.457,-161.057 734.451,-161.326"/>
<text text-anchor="middle" x="763" y="-182.3" font-family="Times New Roman,serif" font-size="14.00">accepted_2</text>
</g>
<!-- WAIT_OUT_2 -->
<g id="node26" class="node"><title>WAIT_OUT_2</title>
<text text-anchor="start" x="816.5" y="-250.3" font-family="Times New Roman,serif" font-size="14.00">acknowledge_2=0</text>
<text text-anchor="start" x="816.5" y="-235.3" font-family="Times New Roman,serif" font-size="14.00">pending_2=0</text>
<text text-anchor="start" x="816.5" y="-220.3" font-family="Times New Roman,serif" font-size="14.00">request_memorized_2=1</text>
</g>
<!-- WAIT_2&#45;&gt;WAIT_OUT_2 -->
<g id="edge55" class="edge"><title>WAIT_2&#45;&gt;WAIT_OUT_2</title>
<path fill="none" stroke="black" d="M772.688,-239C784.699,-239 796.711,-239 808.723,-239"/>
</g>
<!-- PROCESS_2 -->
<g id="node12" class="node"><title>PROCESS_2</title>
<ellipse fill="none" stroke="black" cx="903" cy="-27" rx="61.6163" ry="18"/>
<text text-anchor="middle" x="903" y="-23.3" font-family="Times New Roman,serif" font-size="14.00">PROCESS_2</text>
</g>
<!-- ACK_2&#45;&gt;PROCESS_2 -->
<g id="edge65" class="edge"><title>ACK_2&#45;&gt;PROCESS_2</title>
<path fill="none" stroke="black" d="M755.062,-117.974C784.352,-100.16 835.137,-69.2737 868.906,-48.7357"/>
<polygon fill="black" stroke="black" points="870.798,-51.6811 877.524,-43.4944 867.161,-45.7003 870.798,-51.6811"/>
<text text-anchor="middle" x="832" y="-76.3" font-family="Times New Roman,serif" font-size="14.00">1</text>
</g>
<!-- ACK_OUT_2 -->
<g id="node27" class="node"><title>ACK_OUT_2</title>
<text text-anchor="start" x="816.5" y="-144.3" font-family="Times New Roman,serif" font-size="14.00">acknowledge_2=1</text>
<text text-anchor="start" x="816.5" y="-129.3" font-family="Times New Roman,serif" font-size="14.00">pending_2=1</text>
<text text-anchor="start" x="816.5" y="-114.3" font-family="Times New Roman,serif" font-size="14.00">request_memorized_2=x</text>
</g>
<!-- ACK_2&#45;&gt;ACK_OUT_2 -->
<g id="edge57" class="edge"><title>ACK_2&#45;&gt;ACK_OUT_2</title>
<path fill="none" stroke="black" d="M772.219,-133C784.279,-133 796.34,-133 808.4,-133"/>
</g>
<!-- PROCESS_2&#45;&gt;IDLE_2 -->
<g id="edge67" class="edge"><title>PROCESS_2&#45;&gt;IDLE_2</title>
<path fill="none" stroke="black" d="M925.278,-44.0176C942.784,-58.0904 965.848,-80.2968 976,-106 1008.64,-188.649 992.58,-297.141 982.316,-346.916"/>
<polygon fill="black" stroke="black" points="978.852,-346.379 980.172,-356.891 985.695,-347.85 978.852,-346.379"/>
<text text-anchor="middle" x="1021.5" y="-182.3" font-family="Times New Roman,serif" font-size="14.00">release_2</text>
</g>
<!-- PROCESS_OUT_2 -->
<g id="node28" class="node"><title>PROCESS_OUT_2</title>
<text text-anchor="start" x="1008.5" y="-38.3" font-family="Times New Roman,serif" font-size="14.00">acknowledge_2=0</text>
<text text-anchor="start" x="1008.5" y="-23.3" font-family="Times New Roman,serif" font-size="14.00">pending_2=1</text>
<text text-anchor="start" x="1008.5" y="-8.3" font-family="Times New Roman,serif" font-size="14.00">request_memorized_2=x</text>
</g>
<!-- PROCESS_2&#45;&gt;PROCESS_OUT_2 -->
<g id="edge59" class="edge"><title>PROCESS_2&#45;&gt;PROCESS_OUT_2</title>
<path fill="none" stroke="black" d="M964.535,-27C976.563,-27 988.59,-27 1000.62,-27"/>
</g>
<!-- IDLE -->
<g id="node13" class="node"><title>IDLE</title>
<ellipse fill="none" stroke="black" cx="1463" cy="-375" rx="32.2457" ry="18"/>
<text text-anchor="middle" x="1463" y="-371.3" font-family="Times New Roman,serif" font-size="14.00">IDLE</text>
</g>
<!-- ACCEPT_0 -->
<g id="node14" class="node"><title>ACCEPT_0</title>
<ellipse fill="none" stroke="black" cx="1157" cy="-239" rx="57.2927" ry="18"/>
<text text-anchor="middle" x="1157" y="-235.3" font-family="Times New Roman,serif" font-size="14.00">ACCEPT_0</text>
</g>
<!-- IDLE&#45;&gt;ACCEPT_0 -->
<g id="edge78" class="edge"><title>IDLE&#45;&gt;ACCEPT_0</title>
<path fill="none" stroke="black" d="M1432.75,-368.519C1399.2,-362.625 1343.4,-353.379 1295,-348 1265.67,-344.74 1050.15,-351.564 1030,-330 1016.04,-315.062 1018.14,-300.655 1030,-284 1044.45,-263.707 1068.93,-252.687 1092.56,-246.736"/>
<polygon fill="black" stroke="black" points="1093.62,-250.086 1102.61,-244.483 1092.08,-243.256 1093.62,-250.086"/>
<text text-anchor="start" x="1030" y="-310.8" font-family="Times New Roman,serif" font-size="14.00">request_memorized_0 and</text>
<text text-anchor="middle" x="1120" y="-295.8" font-family="Times New Roman,serif" font-size="14.00"> not (pending_1 or pending_2)</text>
</g>
<!-- ACCEPT_1 -->
<g id="node15" class="node"><title>ACCEPT_1</title>
<ellipse fill="none" stroke="black" cx="1489" cy="-239" rx="57.2927" ry="18"/>
<text text-anchor="middle" x="1489" y="-235.3" font-family="Times New Roman,serif" font-size="14.00">ACCEPT_1</text>
</g>
<!-- IDLE&#45;&gt;ACCEPT_1 -->
<g id="edge80" class="edge"><title>IDLE&#45;&gt;ACCEPT_1</title>
<path fill="none" stroke="black" d="M1431.94,-369.573C1391.38,-363.083 1323.78,-349.59 1309,-330 1296.69,-313.678 1295.97,-299.757 1309,-284 1336.1,-251.215 1361.7,-276.169 1403,-266 1415.43,-262.94 1428.73,-259.17 1441.06,-255.46"/>
<polygon fill="black" stroke="black" points="1442.17,-258.781 1450.71,-252.512 1440.12,-252.087 1442.17,-258.781"/>
<text text-anchor="start" x="1309" y="-318.3" font-family="Times New Roman,serif" font-size="14.00">request_memorized_1 and</text>
<text text-anchor="start" x="1309" y="-303.3" font-family="Times New Roman,serif" font-size="14.00"> not (pending_0 or pending_2) and</text>
<text text-anchor="middle" x="1411.5" y="-288.3" font-family="Times New Roman,serif" font-size="14.00"> not request_memorized_0</text>
</g>
<!-- ACCEPT_2 -->
<g id="node16" class="node"><title>ACCEPT_2</title>
<ellipse fill="none" stroke="black" cx="1857" cy="-239" rx="57.2927" ry="18"/>
<text text-anchor="middle" x="1857" y="-235.3" font-family="Times New Roman,serif" font-size="14.00">ACCEPT_2</text>
</g>
<!-- IDLE&#45;&gt;ACCEPT_2 -->
<g id="edge82" class="edge"><title>IDLE&#45;&gt;ACCEPT_2</title>
<path fill="none" stroke="black" d="M1486.89,-362.831C1497.54,-358.02 1510.29,-352.483 1522,-348 1546.02,-338.803 1555.94,-344.766 1577,-330 1598.26,-315.095 1590.42,-296.809 1613,-284 1668.72,-252.395 1693.08,-278.009 1756,-266 1772.64,-262.824 1790.61,-258.495 1806.72,-254.282"/>
<polygon fill="black" stroke="black" points="1807.71,-257.639 1816.48,-251.684 1805.91,-250.874 1807.71,-257.639"/>
<text text-anchor="start" x="1613" y="-318.3" font-family="Times New Roman,serif" font-size="14.00">request_memorized_2 and</text>
<text text-anchor="start" x="1613" y="-303.3" font-family="Times New Roman,serif" font-size="14.00"> not (pending_0 or pending_1) and</text>
<text text-anchor="middle" x="1765" y="-288.3" font-family="Times New Roman,serif" font-size="14.00"> not (request_memorized_0 or request_memorized_1</text>
</g>
<!-- IDLE_OUT -->
<g id="node29" class="node"><title>IDLE_OUT</title>
<text text-anchor="start" x="1539" y="-386.3" font-family="Times New Roman,serif" font-size="14.00">accepted_0=0</text>
<text text-anchor="start" x="1539" y="-371.3" font-family="Times New Roman,serif" font-size="14.00">accepted_1=0</text>
<text text-anchor="middle" x="1579" y="-356.3" font-family="Times New Roman,serif" font-size="14.00">accepted_2=0</text>
</g>
<!-- IDLE&#45;&gt;IDLE_OUT -->
<g id="edge70" class="edge"><title>IDLE&#45;&gt;IDLE_OUT</title>
<path fill="none" stroke="black" d="M1495.63,-375C1507.35,-375 1519.07,-375 1530.8,-375"/>
</g>
<!-- ACCEPT_0&#45;&gt;IDLE -->
<g id="edge84" class="edge"><title>ACCEPT_0&#45;&gt;IDLE</title>
<path fill="none" stroke="black" d="M1178.47,-255.775C1188.57,-263.693 1200.46,-273.763 1210,-284 1227.15,-302.408 1221.86,-316.36 1243,-330 1257.9,-339.611 1362.88,-357.807 1422.28,-367.515"/>
<polygon fill="black" stroke="black" points="1422.02,-371.02 1432.46,-369.168 1423.15,-364.11 1422.02,-371.02"/>
<text text-anchor="middle" x="1269.5" y="-303.3" font-family="Times New Roman,serif" font-size="14.00">release_0</text>
</g>
<!-- ACCEPT_OUT_0 -->
<g id="node30" class="node"><title>ACCEPT_OUT_0</title>
<text text-anchor="middle" x="1346" y="-235.3" font-family="Times New Roman,serif" font-size="14.00">accepted_0=1</text>
</g>
<!-- ACCEPT_0&#45;&gt;ACCEPT_OUT_0 -->
<g id="edge72" class="edge"><title>ACCEPT_0&#45;&gt;ACCEPT_OUT_0</title>
<path fill="none" stroke="black" d="M1214.22,-239C1242.1,-239 1269.98,-239 1297.87,-239"/>
</g>
<!-- ACCEPT_1&#45;&gt;IDLE -->
<g id="edge86" class="edge"><title>ACCEPT_1&#45;&gt;IDLE</title>
<path fill="none" stroke="black" d="M1501.18,-256.657C1506.2,-264.532 1511.44,-274.317 1514,-284 1519.22,-303.766 1522.51,-311.412 1514,-330 1509.42,-339.991 1501.34,-348.575 1492.93,-355.44"/>
<polygon fill="black" stroke="black" points="1490.78,-352.682 1484.88,-361.484 1494.98,-358.28 1490.78,-352.682"/>
<text text-anchor="middle" x="1546.5" y="-303.3" font-family="Times New Roman,serif" font-size="14.00">release_1</text>
</g>
<!-- ACCEPT_OUT_1 -->
<g id="node31" class="node"><title>ACCEPT_OUT_1</title>
<text text-anchor="middle" x="1699" y="-235.3" font-family="Times New Roman,serif" font-size="14.00">accepted_1=1</text>
</g>
<!-- ACCEPT_1&#45;&gt;ACCEPT_OUT_1 -->
<g id="edge74" class="edge"><title>ACCEPT_1&#45;&gt;ACCEPT_OUT_1</title>
<path fill="none" stroke="black" d="M1546.42,-239C1581.19,-239 1615.96,-239 1650.72,-239"/>
</g>
<!-- ACCEPT_2&#45;&gt;IDLE -->
<g id="edge88" class="edge"><title>ACCEPT_2&#45;&gt;IDLE</title>
<path fill="none" stroke="black" d="M1887.34,-254.439C1898.81,-261.599 1910.64,-271.441 1917,-284 1926.24,-302.237 1931.12,-315.218 1917,-330 1886.65,-361.766 1564.77,-337.971 1522,-348 1512.82,-350.154 1503.28,-353.707 1494.63,-357.506"/>
<polygon fill="black" stroke="black" points="1492.89,-354.453 1485.29,-361.837 1495.84,-360.802 1492.89,-354.453"/>
<text text-anchor="middle" x="1951.5" y="-303.3" font-family="Times New Roman,serif" font-size="14.00">release_2</text>
</g>
<!-- ACCEPT_OUT_2 -->
<g id="node32" class="node"><title>ACCEPT_OUT_2</title>
<text text-anchor="middle" x="1998" y="-235.3" font-family="Times New Roman,serif" font-size="14.00">accepted_2=1</text>
</g>
<!-- ACCEPT_2&#45;&gt;ACCEPT_OUT_2 -->
<g id="edge76" class="edge"><title>ACCEPT_2&#45;&gt;ACCEPT_OUT_2</title>
<path fill="none" stroke="black" d="M1914.28,-239C1926.16,-239 1938.05,-239 1949.93,-239"/>
</g>
</g>
</svg>
